<svg width="53" height="48" viewBox="0 0 53 48" fill="none" xmlns="http://www.w3.org/2000/svg">
<path d="M22.9001 2.2868C10.2529 2.2868 0 12.5209 0 25.1418C0 37.7627 10.2529 48 22.9001 48C35.5473 48 45.8002 37.7659 45.8002 25.1418C45.8002 12.5177 35.5441 2.2868 22.9001 2.2868ZM7.40287 27.9414C6.44318 27.9414 5.74845 27.7156 5.31869 27.4125C5.00202 27.1867 4.84046 26.9093 4.84046 26.6577C4.84046 26.2674 5.29607 26.0643 5.33162 26.0901C5.73553 26.6061 6.41733 26.9964 7.37702 26.9964C8.23654 26.9964 8.71477 26.6803 8.71477 26.1771C8.71477 25.5579 8.14606 25.445 7.1476 25.2321C6.2493 25.0418 5.01172 24.7644 5.01172 23.4807C5.01172 22.3454 5.95848 21.5778 7.43518 21.5778C8.59844 21.5778 9.32871 21.9422 9.61953 22.3712C9.7197 22.5099 9.7714 22.6615 9.7714 22.8002C9.7714 23.1904 9.29317 23.4194 9.26732 23.3807C8.88926 22.8776 8.25593 22.5228 7.48688 22.5228C6.62736 22.5228 6.17175 22.8518 6.17175 23.3549C6.17175 23.9097 6.70168 24.0355 7.68722 24.2516C8.62106 24.4548 9.92327 24.7322 9.92327 26.0417C9.92327 27.2028 8.96358 27.9446 7.3964 27.9446L7.40287 27.9414ZM13.9559 27.248C13.9559 27.7027 13.7297 27.8414 13.4001 27.8414H13.2741C12.9445 27.8414 12.7054 27.7027 12.7054 27.248V22.268C12.7054 21.8132 12.9445 21.6616 13.2741 21.6616H13.4001C13.7297 21.6616 13.9559 21.8003 13.9559 22.268V27.248ZM20.4734 23.0227C20.2828 22.8711 20.0436 22.7582 19.7044 22.7582C18.7188 22.7582 18.3278 23.7162 18.3278 25.116V27.248C18.3278 27.7027 18.0887 27.8414 17.7721 27.8414H17.6331C17.3035 27.8414 17.0773 27.7027 17.0773 27.248V21.8003C17.0773 21.7616 17.2777 21.6616 17.5329 21.6616C17.8238 21.6616 18.1404 21.7874 18.2664 22.268C18.2923 22.3938 18.3181 22.5454 18.3181 22.7228C18.5831 21.9777 19.0872 21.5745 19.8595 21.5745C20.4896 21.5745 20.8579 21.8777 20.8579 22.3809C20.8579 22.884 20.5057 23.0485 20.4799 23.0227H20.4734ZM24.5901 27.248C24.5901 27.7027 24.3639 27.8414 24.0343 27.8414H23.9083C23.5787 27.8414 23.3396 27.7027 23.3396 27.248V22.268C23.3396 21.8132 23.5787 21.6616 23.9083 21.6616H24.0343C24.3639 21.6616 24.5901 21.8003 24.5901 22.268V27.248ZM33.2564 27.6995C33.2564 27.7382 33.0528 27.8382 32.8137 27.8382C32.5099 27.8382 32.1933 27.7253 32.0672 27.2705C32.0414 27.1577 32.0155 27.0319 32.0155 26.8803C31.5858 27.4995 30.9298 27.9382 29.996 27.9382C28.3933 27.9382 27.6598 26.8545 27.6598 25.3418V22.2648C27.6598 21.81 27.886 21.6584 28.2026 21.6584H28.3416C28.6712 21.6584 28.8974 21.7971 28.8974 22.2648V25.1902C28.8974 26.2352 29.4273 26.8545 30.3482 26.8545C31.1043 26.8545 31.6989 26.4255 32.0155 25.7836V22.2648C32.0155 21.81 32.2417 21.6584 32.5584 21.6584H32.6973C33.0269 21.6584 33.2531 21.7971 33.2531 22.2648V27.6995H33.2564ZM40.656 22.368C40.7562 22.5067 40.8079 22.6583 40.8079 22.7969C40.8079 23.1872 40.3296 23.4162 40.3038 23.3775C39.9257 22.8744 39.2924 22.5196 38.5233 22.5196C37.6638 22.5196 37.2114 22.8486 37.2114 23.3517C37.2114 23.9065 37.7414 24.0323 38.7269 24.2484C39.6608 24.4516 40.963 24.7289 40.963 26.0384C40.963 27.1996 40.0033 27.9414 38.4361 27.9414C37.4764 27.9414 36.7817 27.7156 36.3519 27.4125C36.0353 27.1867 35.8705 26.9093 35.8705 26.6577C35.8705 26.2674 36.3261 26.0643 36.3616 26.0901C36.7655 26.6061 37.4473 26.9964 38.407 26.9964C39.2665 26.9964 39.7448 26.6803 39.7448 26.1771C39.7448 25.5579 39.1761 25.445 38.1776 25.2321C37.2825 25.0418 36.045 24.7644 36.045 23.4807C36.045 22.3454 36.9917 21.5778 38.4684 21.5778C39.6317 21.5778 40.3619 21.9422 40.6528 22.3712L40.656 22.368Z" fill="url(#paint0_linear_298_2)"/>
<path d="M46.9407 0C43.7805 0 41.2148 2.55772 41.2148 5.71536C41.2148 8.873 43.7773 11.4307 46.9407 11.4307C50.1041 11.4307 52.6665 8.873 52.6665 5.71536C52.6665 2.55772 50.1041 0 46.9407 0Z" fill="url(#paint1_linear_298_2)"/>
<defs>
<linearGradient id="paint0_linear_298_2" x1="22.9001" y1="2.2868" x2="22.9001" y2="48" gradientUnits="userSpaceOnUse">
<stop stop-color="#F47418"/>
<stop offset="1" stop-color="#EC4C19"/>
</linearGradient>
<linearGradient id="paint1_linear_298_2" x1="46.9407" y1="0" x2="46.9407" y2="11.4307" gradientUnits="userSpaceOnUse">
<stop stop-color="#F47418"/>
<stop offset="1" stop-color="#EC4C19"/>
</linearGradient>
</defs>
</svg>
