<svg width="160" height="32" viewBox="0 0 160 32" fill="none" xmlns="http://www.w3.org/2000/svg">
<path d="M14.6549 2.72548C15.2051 1.61061 16.7949 1.61061 17.3451 2.72548L20.3533 8.8207C20.5718 9.26342 20.9941 9.57027 21.4827 9.64126L28.2092 10.6187C29.4395 10.7975 29.9308 12.3094 29.0405 13.1772L24.1732 17.9217C23.8196 18.2663 23.6583 18.7628 23.7418 19.2494L24.8908 25.9487C25.1009 27.174 23.8148 28.1085 22.7144 27.5299L16.698 24.367C16.261 24.1372 15.739 24.1372 15.302 24.367L9.28564 27.5299C8.1852 28.1085 6.89905 27.174 7.10922 25.9487L8.25824 19.2494C8.3417 18.7628 8.18037 18.2663 7.82684 17.9217L2.95952 13.1772C2.06924 12.3094 2.56051 10.7975 3.79084 10.6187L10.5173 9.64126C11.0059 9.57027 11.4282 9.26342 11.6467 8.8207L14.6549 2.72548Z" fill="#FBCB39"/>
<path d="M46.6549 2.72548C47.2051 1.61061 48.7949 1.61061 49.3451 2.72548L52.3533 8.8207C52.5718 9.26342 52.9941 9.57027 53.4827 9.64126L60.2092 10.6187C61.4395 10.7975 61.9308 12.3094 61.0405 13.1772L56.1732 17.9217C55.8196 18.2663 55.6583 18.7628 55.7418 19.2494L56.8908 25.9487C57.1009 27.174 55.8148 28.1085 54.7144 27.5299L48.698 24.367C48.261 24.1372 47.739 24.1372 47.302 24.367L41.2856 27.5299C40.1852 28.1085 38.8991 27.174 39.1092 25.9487L40.2582 19.2494C40.3417 18.7628 40.1804 18.2663 39.8268 17.9217L34.9595 13.1772C34.0692 12.3094 34.5605 10.7975 35.7908 10.6187L42.5173 9.64126C43.0059 9.57027 43.4282 9.26342 43.6467 8.8207L46.6549 2.72548Z" fill="#FBCB39"/>
<path d="M78.6549 2.72548C79.2051 1.61061 80.7949 1.61061 81.3451 2.72548L84.3533 8.8207C84.5718 9.26342 84.9941 9.57027 85.4827 9.64126L92.2092 10.6187C93.4395 10.7975 93.9308 12.3094 93.0405 13.1772L88.1732 17.9217C87.8196 18.2663 87.6583 18.7628 87.7418 19.2494L88.8908 25.9487C89.1009 27.174 87.8148 28.1085 86.7144 27.5299L80.698 24.367C80.261 24.1372 79.739 24.1372 79.302 24.367L73.2856 27.5299C72.1852 28.1085 70.8991 27.174 71.1092 25.9487L72.2582 19.2494C72.3417 18.7628 72.1804 18.2663 71.8268 17.9217L66.9595 13.1772C66.0692 12.3094 66.5605 10.7975 67.7908 10.6187L74.5173 9.64126C75.0059 9.57027 75.4282 9.26342 75.6467 8.8207L78.6549 2.72548Z" fill="#FBCB39"/>
<path d="M110.655 2.72548C111.205 1.61061 112.795 1.61061 113.345 2.72548L116.353 8.8207C116.572 9.26342 116.994 9.57027 117.483 9.64126L124.209 10.6187C125.439 10.7975 125.931 12.3094 125.04 13.1772L120.173 17.9217C119.82 18.2663 119.658 18.7628 119.742 19.2494L120.891 25.9487C121.101 27.174 119.815 28.1085 118.714 27.5299L112.698 24.367C112.261 24.1372 111.739 24.1372 111.302 24.367L105.286 27.5299C104.185 28.1085 102.899 27.174 103.109 25.9487L104.258 19.2494C104.342 18.7628 104.18 18.2663 103.827 17.9217L98.9595 13.1772C98.0692 12.3094 98.5605 10.7975 99.7908 10.6187L106.517 9.64126C107.006 9.57027 107.428 9.26342 107.647 8.8207L110.655 2.72548Z" fill="#FBCB39"/>
<path d="M142.655 2.72548C143.205 1.61061 144.795 1.61061 145.345 2.72548L148.353 8.8207C148.572 9.26342 148.994 9.57027 149.483 9.64126L156.209 10.6187C157.439 10.7975 157.931 12.3094 157.04 13.1772L152.173 17.9217C151.82 18.2663 151.658 18.7628 151.742 19.2494L152.891 25.9487C153.101 27.174 151.815 28.1085 150.714 27.5299L144.698 24.367C144.261 24.1372 143.739 24.1372 143.302 24.367L137.286 27.5299C136.185 28.1085 134.899 27.174 135.109 25.9487L136.258 19.2494C136.342 18.7628 136.18 18.2663 135.827 17.9217L130.96 13.1772C130.069 12.3094 130.561 10.7975 131.791 10.6187L138.517 9.64126C139.006 9.57027 139.428 9.26342 139.647 8.8207L142.655 2.72548Z" fill="#FBCB39"/>
</svg>
