<svg width="40" height="40" viewBox="0 0 40 40" fill="none" xmlns="http://www.w3.org/2000/svg">
<path d="M20 10C22.5013 12.7384 23.9228 16.292 24 20C23.9228 23.708 22.5013 27.2616 20 30M20 10C17.4987 12.7384 16.0772 16.292 16 20C16.0772 23.708 17.4987 27.2616 20 30M20 10C14.4772 10 10 14.4772 10 20C10 25.5228 14.4772 30 20 30M20 10C25.5228 10 30 14.4772 30 20C30 25.5228 25.5228 30 20 30M10.5 17H29.5M10.5 23H29.5" stroke="#262626" stroke-width="1.75" stroke-linecap="round" stroke-linejoin="round"/>
</svg>
