<svg width="40" height="40" viewBox="0 0 40 40" fill="none" xmlns="http://www.w3.org/2000/svg">
<path d="M20.2002 12C20.2002 12 27.3309 12.0002 29.1084 12.4766C30.0913 12.742 30.8638 13.5164 31.125 14.498C31.5988 16.2748 31.6006 19.9789 31.6006 20C31.6006 20 31.6002 23.7201 31.125 25.502C30.8602 26.4874 30.0877 27.2616 29.1084 27.5234C27.3309 27.9998 20.2002 28 20.2002 28C20.1553 28 13.0673 27.9983 11.292 27.5234C10.3092 27.2579 9.53652 26.4837 9.27539 25.502C8.80024 23.7201 8.80078 20 8.80078 20C8.80079 19.9789 8.8016 16.2748 9.27539 14.498C9.54019 13.5128 10.3128 12.7384 11.292 12.4766C13.0673 12.0017 20.1553 12 20.2002 12ZM17.9111 23.4863L23.8086 19.9863L17.9111 16.4873V23.4863Z" fill="#262626"/>
</svg>
